HIERARCHY
ROOT Hips
{
	OFFSET 0.000000 71.427986 0.000000
	CHANNELS 6 Xposition Yposition Zposition Xrotation Yrotation Zrotation
	JOINT Pelvis
	{
		OFFSET 0.000000 0.000000 0.000000
		CHANNELS 3 Xrotation Yrotation Zrotation
		JOINT LeftUpLeg
		{
			OFFSET 6.797100 -2.508499 -1.318700
			CHANNELS 3 Xrotation Yrotation Zrotation
			JOINT LeftLeg
			{
				OFFSET 0.069008 -29.241863 0.690200
				CHANNELS 3 Xrotation Yrotation Zrotation
				JOINT LeftFoot
				{
					OFFSET -0.069008 -29.568123 -0.266800
					CHANNELS 3 Xrotation Yrotation Zrotation
					JOINT LeftToeBase
					{
						OFFSET 3.145500 -8.631000 16.059900
						CHANNELS 3 Xrotation Yrotation Zrotation
						End Site
						{
							OFFSET 0.000000 18.501587 0.000000
						}
					}
				}
			}
			JOINT Left_ShortSleeve
			{
				OFFSET 0.265923 -10.480953 1.153800
				CHANNELS 3 Xrotation Yrotation Zrotation
				End Site
				{
					OFFSET 1.725763 19.823879 0.000000
				}
			}
		}
		JOINT RightUpLeg
		{
			OFFSET -6.797100 -2.508499 -1.318700
			CHANNELS 3 Xrotation Yrotation Zrotation
			JOINT RightLeg
			{
				OFFSET -0.082453 -29.241932 0.688000
				CHANNELS 3 Xrotation Yrotation Zrotation
				JOINT RightFoot
				{
					OFFSET 0.082453 -29.568058 -0.264600
					CHANNELS 3 Xrotation Yrotation Zrotation
					JOINT RightToeBase
					{
						OFFSET -3.115300 -8.682800 16.113400
						CHANNELS 3 Xrotation Yrotation Zrotation
						End Site
						{
							OFFSET 0.000000 18.567114 0.000000
						}
					}
				}
			}
			JOINT Right_ShortSleeve
			{
				OFFSET -0.265923 -10.480953 1.153800
				CHANNELS 3 Xrotation Yrotation Zrotation
				End Site
				{
					OFFSET -1.725766 19.823910 0.000000
				}
			}
		}
	}
	JOINT Spine
	{
		OFFSET 0.000000 13.368103 0.470500
		CHANNELS 3 Xrotation Yrotation Zrotation
		JOINT Spine1
		{
			OFFSET 0.147000 13.837402 0.538800
			CHANNELS 3 Xrotation Yrotation Zrotation
			JOINT Spine2
			{
				OFFSET 0.168000 16.242897 -1.435500
				CHANNELS 3 Xrotation Yrotation Zrotation
				JOINT Neck
				{
					OFFSET 0.217200 18.631500 -1.679100
					CHANNELS 3 Xrotation Yrotation Zrotation
					JOINT Head
					{
						OFFSET 0.000000 6.599396 1.385900
						CHANNELS 3 Xrotation Yrotation Zrotation
						JOINT Hat
						{
							OFFSET -0.532200 27.220596 -10.096100
							CHANNELS 3 Xrotation Yrotation Zrotation
							End Site
							{
								OFFSET 0.000000 22.029861 0.000000
							}
						}
						JOINT HairD
						{
							OFFSET -10.777400 17.437393 -1.325900
							CHANNELS 3 Xrotation Yrotation Zrotation
							JOINT HairD1
							{
								OFFSET -3.290299 -11.051193 1.062200
								CHANNELS 3 Xrotation Yrotation Zrotation
								End Site
								{
									OFFSET 0.000000 11.579437 0.000000
								}
							}
						}
						JOINT HairB
						{
							OFFSET -10.777400 17.437393 1.467900
							CHANNELS 3 Xrotation Yrotation Zrotation
							JOINT HairB1
							{
								OFFSET -1.561200 -12.956299 3.590200
								CHANNELS 3 Xrotation Yrotation Zrotation
								End Site
								{
									OFFSET 0.000000 13.534866 0.000000
								}
							}
						}
						JOINT HairA
						{
							OFFSET 9.713100 17.437393 1.467900
							CHANNELS 3 Xrotation Yrotation Zrotation
							JOINT HairA1
							{
								OFFSET 1.561200 -12.956299 3.590200
								CHANNELS 3 Xrotation Yrotation Zrotation
								End Site
								{
									OFFSET 0.000000 13.534866 0.000000
								}
							}
						}
						JOINT HairC
						{
							OFFSET 9.713100 17.437393 -1.325900
							CHANNELS 3 Xrotation Yrotation Zrotation
							JOINT HairC1
							{
								OFFSET 3.290300 -11.051193 1.062200
								CHANNELS 3 Xrotation Yrotation Zrotation
								End Site
								{
									OFFSET 0.000000 11.579437 0.000000
								}
							}
						}
					}
				}
				JOINT LeftShoulder
				{
					OFFSET 5.101800 15.108002 -2.763700
					CHANNELS 3 Xrotation Yrotation Zrotation
					JOINT LeftArm
					{
						OFFSET 9.825497 2.506317 -1.597400
						CHANNELS 3 Xrotation Yrotation Zrotation
						JOINT LeftForeArm
						{
							OFFSET 21.966244 0.000000 0.000000
							CHANNELS 3 Xrotation Yrotation Zrotation
							JOINT LeftHand
							{
								OFFSET 33.879036 0.000000 0.000000
								CHANNELS 3 Xrotation Yrotation Zrotation
								JOINT LeftHandThumb1
								{
									OFFSET 6.715286 -2.359680 3.363841
									CHANNELS 3 Xrotation Yrotation Zrotation
									JOINT LeftHandThumb2
									{
										OFFSET 2.507072 -1.447464 1.447461
										CHANNELS 3 Xrotation Yrotation Zrotation
										JOINT LeftHandThumb3
										{
											OFFSET 2.898338 -1.673355 1.673357
											CHANNELS 3 Xrotation Yrotation Zrotation
											End Site
											{
												OFFSET -0.295959 3.727692 -0.131651
											}
										}
									}
								}
								JOINT LeftHandIndex1
								{
									OFFSET 14.190811 -0.254547 3.840278
									CHANNELS 3 Xrotation Yrotation Zrotation
									JOINT LeftHandIndex2
									{
										OFFSET 3.551727 0.000000 -0.000000
										CHANNELS 3 Xrotation Yrotation Zrotation
										JOINT LeftHandIndex3
										{
											OFFSET 2.894196 0.000000 0.000000
											CHANNELS 3 Xrotation Yrotation Zrotation
											End Site
											{
												OFFSET -1.000603 2.690872 0.366626
											}
										}
									}
								}
								JOINT LeftHandMiddle1
								{
									OFFSET 13.776489 0.000000 0.000000
									CHANNELS 3 Xrotation Yrotation Zrotation
									JOINT LeftHandMiddle2
									{
										OFFSET 3.438232 0.000000 0.000000
										CHANNELS 3 Xrotation Yrotation Zrotation
										JOINT LeftHandMiddle3
										{
											OFFSET 3.691551 0.000000 0.000000
											CHANNELS 3 Xrotation Yrotation Zrotation
											End Site
											{
												OFFSET -1.082298 3.499527 0.457670
											}
										}
									}
								}
								JOINT LeftHandRing1
								{
									OFFSET 13.966164 -0.268127 -3.067488
									CHANNELS 3 Xrotation Yrotation Zrotation
									JOINT LeftHandRing2
									{
										OFFSET 3.162567 0.000000 0.000000
										CHANNELS 3 Xrotation Yrotation Zrotation
										JOINT LeftHandRing3
										{
											OFFSET 3.324348 0.000000 0.000000
											CHANNELS 3 Xrotation Yrotation Zrotation
											End Site
											{
												OFFSET -0.861900 3.184998 0.405154
											}
										}
									}
								}
								JOINT LeftHandPinky1
								{
									OFFSET 13.131393 -0.168503 -5.746925
									CHANNELS 3 Xrotation Yrotation Zrotation
									JOINT LeftHandPinky2
									{
										OFFSET 2.849182 0.000000 0.000000
										CHANNELS 3 Xrotation Yrotation Zrotation
										JOINT LeftHandPinky3
										{
											OFFSET 2.805038 0.000000 0.000000
											CHANNELS 3 Xrotation Yrotation Zrotation
											End Site
											{
												OFFSET -0.882500 2.642609 0.325652
											}
										}
									}
								}
							}
							JOINT Left_Sleeve
							{
								OFFSET 6.592125 -0.646545 0.805568
								CHANNELS 3 Xrotation Yrotation Zrotation
								End Site
								{
									OFFSET -0.000179 20.275787 -0.000000
								}
							}
						}
					}
				}
				JOINT RightShoulder
				{
					OFFSET -5.731700 15.108002 -2.763700
					CHANNELS 3 Xrotation Yrotation Zrotation
					JOINT RightArm
					{
						OFFSET -9.825497 2.506317 -1.597400
						CHANNELS 3 Xrotation Yrotation Zrotation
						JOINT RightForeArm
						{
							OFFSET -21.966242 0.000000 0.000000
							CHANNELS 3 Xrotation Yrotation Zrotation
							JOINT RightHand
							{
								OFFSET -33.879032 0.000000 0.000000
								CHANNELS 3 Xrotation Yrotation Zrotation
								JOINT RightHandThumb1
								{
									OFFSET -6.715286 -2.359680 3.363841
									CHANNELS 3 Xrotation Yrotation Zrotation
									JOINT RightHandThumb2
									{
										OFFSET -2.507072 -1.447464 1.447461
										CHANNELS 3 Xrotation Yrotation Zrotation
										JOINT RightHandThumb3
										{
											OFFSET -2.898338 -1.673355 1.673357
											CHANNELS 3 Xrotation Yrotation Zrotation
											End Site
											{
												OFFSET 0.295959 3.727692 -0.131651
											}
										}
									}
								}
								JOINT RightHandIndex1
								{
									OFFSET -14.190811 -0.254547 3.840278
									CHANNELS 3 Xrotation Yrotation Zrotation
									JOINT RightHandIndex2
									{
										OFFSET -3.551727 0.000000 -0.000000
										CHANNELS 3 Xrotation Yrotation Zrotation
										JOINT RightHandIndex3
										{
											OFFSET -2.894196 0.000000 0.000000
											CHANNELS 3 Xrotation Yrotation Zrotation
											End Site
											{
												OFFSET 1.000603 2.690872 0.366626
											}
										}
									}
								}
								JOINT RightHandMiddle1
								{
									OFFSET -13.776489 0.000000 0.000000
									CHANNELS 3 Xrotation Yrotation Zrotation
									JOINT RightHandMiddle2
									{
										OFFSET -3.438232 0.000000 0.000000
										CHANNELS 3 Xrotation Yrotation Zrotation
										JOINT RightHandMiddle3
										{
											OFFSET -3.691551 0.000000 0.000000
											CHANNELS 3 Xrotation Yrotation Zrotation
											End Site
											{
												OFFSET 1.082298 3.499527 0.457670
											}
										}
									}
								}
								JOINT RightHandRing1
								{
									OFFSET -13.966164 -0.268127 -3.067488
									CHANNELS 3 Xrotation Yrotation Zrotation
									JOINT RightHandRing2
									{
										OFFSET -3.162567 0.000000 0.000000
										CHANNELS 3 Xrotation Yrotation Zrotation
										JOINT RightHandRing3
										{
											OFFSET -3.324348 0.000000 0.000000
											CHANNELS 3 Xrotation Yrotation Zrotation
											End Site
											{
												OFFSET 0.861900 3.184998 0.405154
											}
										}
									}
								}
								JOINT RightHandPinky1
								{
									OFFSET -13.131393 -0.168503 -5.746925
									CHANNELS 3 Xrotation Yrotation Zrotation
									JOINT RightHandPinky2
									{
										OFFSET -2.849182 0.000000 0.000000
										CHANNELS 3 Xrotation Yrotation Zrotation
										JOINT RightHandPinky3
										{
											OFFSET -2.805038 0.000000 0.000000
											CHANNELS 3 Xrotation Yrotation Zrotation
											End Site
											{
												OFFSET 0.882500 2.642609 0.325652
											}
										}
									}
								}
							}
							JOINT Right_Sleeve
							{
								OFFSET -6.592125 -0.646545 0.805568
								CHANNELS 3 Xrotation Yrotation Zrotation
								End Site
								{
									OFFSET 0.000179 20.275787 -0.000000
								}
							}
						}
					}
				}
				JOINT Bind_Right_JacketString
				{
					OFFSET -3.534800 11.969597 7.200700
					CHANNELS 3 Xrotation Yrotation Zrotation
					JOINT Bind_Right_JacketString1
					{
						OFFSET -0.319900 -6.102600 2.794100
						CHANNELS 3 Xrotation Yrotation Zrotation
						End Site
						{
							OFFSET 0.000000 6.719452 0.000000
						}
					}
				}
				JOINT Bind_Left_JacketString
				{
					OFFSET 2.904800 11.969597 7.200700
					CHANNELS 3 Xrotation Yrotation Zrotation
					JOINT Bind_Left_JacketString1
					{
						OFFSET 0.364800 -5.904503 3.186800
						CHANNELS 3 Xrotation Yrotation Zrotation
						End Site
						{
							OFFSET 0.000000 6.719513 0.000000
						}
					}
				}
				JOINT HairE
				{
					OFFSET 5.915200 17.612701 -11.592200
					CHANNELS 3 Xrotation Yrotation Zrotation
					JOINT HairE1
					{
						OFFSET 0.289200 -7.171898 -1.284500
						CHANNELS 3 Xrotation Yrotation Zrotation
						End Site
						{
							OFFSET 0.000000 7.291756 0.000000
						}
					}
				}
				JOINT HairF
				{
					OFFSET -0.864800 17.612701 -11.592200
					CHANNELS 3 Xrotation Yrotation Zrotation
					JOINT HairF1
					{
						OFFSET 0.000000 -14.087097 -2.127501
						CHANNELS 3 Xrotation Yrotation Zrotation
						End Site
						{
							OFFSET 0.000000 14.246841 0.000000
						}
					}
				}
				JOINT HairG
				{
					OFFSET -8.087700 17.612701 -11.592200
					CHANNELS 3 Xrotation Yrotation Zrotation
					JOINT HairG1
					{
						OFFSET -0.293600 -6.081398 -0.910100
						CHANNELS 3 Xrotation Yrotation Zrotation
						End Site
						{
							OFFSET 0.000000 6.156120 0.000000
						}
					}
				}
			}
		}
	}
	JOINT Pouch
	{
		OFFSET 0.000000 4.394501 10.847300
		CHANNELS 3 Xrotation Yrotation Zrotation
		End Site
		{
			OFFSET 0.000000 21.880577 0.000000
		}
	}
	JOINT Bag
	{
		OFFSET -13.229000 4.813004 -0.593300
		CHANNELS 3 Xrotation Yrotation Zrotation
		End Site
		{
			OFFSET 0.000000 21.880577 0.000000
		}
	}
	JOINT OccupyGuyFacialAnim_Joint
	{
		OFFSET 1.000000 -70.206398 -1.655000
		CHANNELS 3 Xrotation Yrotation Zrotation
		End Site
		{
			OFFSET 0.000000 21.880577 0.000000
		}
	}
}
MOTION
Frames: 4
Frame Time: 0.016667
0.088082 70.510933 1.307248 -9.642626 5.114245 4.568447 0.000000 -0.000000 -0.000000 -14.988106 6.305713 -1.256586 52.535694 -5.613107 -0.829015 -3.560218 -0.005050 2.095510 0.000002 -0.000000 -0.000000 -0.000000 -0.000000 -0.000000 -0.092981 -6.364652 -3.678590 22.871063 6.138470 3.412384 -13.423892 0.887136 -5.826612 0.000000 0.000000 0.000000 -0.000001 -0.000000 0.000001 15.780918 -5.172185 -2.375833 2.828928 -1.297233 -0.520220 2.839534 -1.291909 -0.480964 -10.214222 -0.289804 1.928838 0.642530 3.946486 -0.951178 -0.000000 -0.000000 0.000000 -0.000000 -0.000000 0.000000 -0.000000 -0.000000 0.000000 -0.000000 -0.000000 0.000000 -0.000000 -0.000000 0.000000 -0.000000 -0.000000 0.000000 -0.000000 -0.000000 0.000000 -0.000000 -0.000000 0.000000 -0.000000 -0.000000 0.000000 1.783137 -2.817867 -5.367187 8.347190 -11.449693 -68.845971 0.000005 -33.539029 0.000016 -23.608525 5.693669 2.838386 -3.469771 3.607312 7.883182 9.703639 22.223508 2.891171 0.000000 -0.000001 -0.000001 0.162354 3.429613 -10.498177 0.209650 1.554732 -15.358568 -0.000000 0.000001 -0.000000 0.362545 4.206377 -18.344227 0.474611 2.311789 -23.200237 0.000000 0.000001 0.000001 0.689028 4.991693 -26.673256 0.865731 3.066789 -31.521449 -0.000002 0.000001 0.000000 0.902506 5.377890 -30.995351 1.110593 3.433628 -35.838187 0.000000 -0.000001 0.000003 0.000002 -0.000001 -0.000000 0.815658 9.465460 15.261687 -2.962836 1.768753 67.176714 0.000003 20.011862 -0.000019 1.318000 -7.062437 -8.055862 -1.986180 -5.435659 -3.761593 8.766479 -20.697683 -3.062071 -0.000000 -0.000001 -0.000000 2.057126 -6.108276 55.293571 5.419335 -4.594490 99.429407 -0.000001 -0.000000 0.000004 2.592850 -6.426560 62.973429 4.946627 -4.648184 93.567315 -0.000000 -0.000001 0.000001 2.854980 -6.549324 66.538590 4.919153 -4.649822 93.228216 0.000001 -0.000001 0.000004 1.542110 -5.696832 47.168200 2.898965 -4.313217 67.797352 0.000000 0.000002 0.000001 -0.000000 -0.000000 0.000000 0.000001 -0.000000 -0.000000 0.000001 -0.000000 0.000000 0.000001 -0.000000 -0.000000 0.000001 -0.000000 -0.000000 0.000001 -0.000000 -0.000000 0.000001 -0.000000 -0.000000 0.000001 -0.000000 -0.000000 0.000001 -0.000000 -0.000000 0.000001 -0.000000 -0.000000 0.000001 -0.000000 -0.000000 0.000000 -0.000000 -0.000000 0.000000 -0.000000 -0.000000 0.000000 -0.000000 -0.000000 
0.177962 70.540619 2.310784 -9.486501 4.458409 4.635011 -0.000001 0.000000 0.000000 -15.613835 6.573748 -2.816494 48.235544 -6.022047 -0.828269 -3.029482 -0.182620 3.436871 -0.000001 -0.000000 -0.000000 0.000001 0.000000 0.000000 0.886350 -6.529796 -3.932302 22.466859 6.117555 3.437717 -14.101716 1.760961 -5.741313 -0.000000 0.000000 -0.000000 -0.000000 0.000000 -0.000001 15.686322 -5.003719 -2.633771 2.864631 -1.219265 -0.580729 2.874599 -1.216439 -0.545703 -10.293794 -0.276140 1.920122 0.424422 4.055672 -0.967052 -0.000000 0.000000 -0.000000 -0.000000 0.000000 -0.000000 -0.000000 0.000000 -0.000000 -0.000000 0.000000 -0.000000 -0.000000 -0.000000 -0.000000 -0.000000 0.000000 -0.000000 -0.000000 -0.000000 -0.000000 -0.000000 0.000000 -0.000000 -0.000000 0.000000 -0.000000 1.743982 -3.170769 -5.307286 8.560800 -9.744668 -69.768654 0.000003 -31.640742 0.000028 -20.354018 6.201447 1.849338 -3.469769 3.607315 7.883182 9.703640 22.223508 2.891173 -0.000000 -0.000000 -0.000001 0.162356 3.429612 -10.498179 0.209650 1.554732 -15.358573 0.000001 0.000002 -0.000002 0.362545 4.206376 -18.344218 0.474612 2.311787 -23.200240 0.000000 0.000001 -0.000003 0.689030 4.991691 -26.673253 0.865730 3.066791 -31.521456 -0.000001 0.000001 -0.000004 0.902507 5.377889 -30.995351 1.110594 3.433630 -35.838187 0.000000 -0.000001 0.000005 0.000001 0.000001 -0.000001 0.830228 9.367764 15.335609 -2.994203 1.838904 66.790466 0.000004 20.328286 0.000001 1.692689 -7.849708 -8.272427 -1.986177 -5.435660 -3.761595 8.766477 -20.697681 -3.062067 -0.000000 -0.000001 0.000000 2.057130 -6.108276 55.293571 5.419334 -4.594492 99.429400 -0.000000 0.000000 0.000000 2.592851 -6.426560 62.973436 4.946628 -4.648184 93.567301 0.000000 0.000000 -0.000001 2.854981 -6.549324 66.538583 4.919151 -4.649822 93.228223 -0.000001 -0.000000 0.000001 1.542110 -5.696831 47.168200 2.898971 -4.313218 67.797359 -0.000001 0.000000 0.000001 -0.000000 -0.000001 0.000000 0.000001 0.000000 -0.000000 0.000001 0.000000 0.000000 0.000001 0.000000 -0.000000 0.000001 0.000000 -0.000000 0.000001 0.000000 -0.000000 0.000001 0.000000 -0.000000 0.000001 0.000000 -0.000000 0.000001 0.000000 -0.000000 0.000001 0.000000 -0.000000 0.000001 0.000000 -0.000000 -0.000001 0.000000 0.000000 -0.000001 0.000000 0.000000 -0.000001 0.000000 0.000000 
0.277743 70.542618 3.408431 -9.306646 3.870935 4.617143 0.000000 -0.000000 -0.000000 -16.839883 6.416147 -3.701490 44.394700 -5.902786 -0.793448 -2.046058 0.397162 1.670893 0.000001 0.000000 -0.000000 0.000001 -0.000000 -0.000000 1.962088 -6.608526 -4.085075 22.015452 6.080803 3.466095 -14.856181 2.487930 -5.631567 0.000000 0.000000 -0.000000 0.000000 0.000000 0.000000 15.521004 -4.830553 -2.778400 2.925966 -1.153219 -0.636157 2.934975 -1.152664 -0.605375 -10.373089 -0.263189 1.911383 0.194516 4.155698 -0.959679 -0.000000 -0.000000 0.000000 -0.000000 -0.000000 0.000000 -0.000000 -0.000000 0.000000 -0.000000 -0.000000 0.000000 -0.000000 0.000000 -0.000000 -0.000000 -0.000000 0.000000 -0.000000 0.000000 -0.000000 -0.000000 -0.000000 0.000000 -0.000000 -0.000000 0.000000 1.706081 -3.362186 -5.359654 8.566219 -8.219118 -70.564836 -0.000002 -29.568934 0.000010 -16.683217 6.782382 0.412777 -3.469771 3.607314 7.883180 9.703640 22.223508 2.891174 -0.000001 0.000002 0.000001 0.162356 3.429613 -10.498182 0.209651 1.554732 -15.358573 0.000001 0.000001 -0.000000 0.362545 4.206376 -18.344218 0.474612 2.311788 -23.200233 -0.000001 0.000000 -0.000005 0.689029 4.991693 -26.673256 0.865729 3.066791 -31.521453 0.000001 0.000000 0.000000 0.902507 5.377891 -30.995351 1.110592 3.433631 -35.838187 -0.000001 0.000000 0.000003 0.000004 0.000000 0.000000 0.840505 9.299991 15.386815 -3.179687 1.962937 66.379234 -0.000000 20.310418 -0.000007 1.979819 -8.025346 -8.406078 -1.986181 -5.435661 -3.761593 8.766482 -20.697681 -3.062072 0.000002 -0.000001 0.000002 2.057126 -6.108274 55.293571 5.419335 -4.594490 99.429407 -0.000000 -0.000000 0.000004 2.592852 -6.426562 62.973429 4.946627 -4.648182 93.567315 -0.000000 -0.000002 0.000004 2.854979 -6.549325 66.538583 4.919151 -4.649824 93.228216 -0.000001 -0.000001 -0.000000 1.542108 -5.696832 47.168200 2.898968 -4.313218 67.797346 -0.000000 0.000000 0.000001 0.000001 0.000000 -0.000000 -0.000000 0.000000 -0.000000 -0.000000 0.000000 0.000000 -0.000000 0.000000 -0.000000 -0.000000 0.000000 -0.000000 -0.000000 0.000000 -0.000000 -0.000000 0.000000 -0.000000 -0.000000 0.000000 -0.000000 -0.000000 0.000000 -0.000000 -0.000000 0.000000 -0.000000 -0.000000 0.000000 -0.000000 0.000000 -0.000000 -0.000000 0.000000 -0.000000 -0.000000 0.000000 -0.000000 -0.000000 
0.389695 70.575775 4.635486 -9.112329 3.215506 4.612857 0.000000 0.000000 -0.000000 -17.499346 6.145575 -4.527266 38.759076 -5.769709 -0.788247 0.036752 1.046838 -0.729222 0.000001 0.000000 0.000000 -0.000003 0.000000 -0.000000 3.401277 -6.661844 -4.254708 21.024270 6.024336 3.494375 -15.454063 3.237564 -5.454309 -0.000000 -0.000000 -0.000000 0.000000 -0.000000 -0.000000 15.345675 -4.642294 -2.957992 2.992097 -1.077588 -0.696962 3.000079 -1.079578 -0.670915 -10.460873 -0.248840 1.903442 -0.064419 4.273280 -0.953785 0.000000 -0.000000 0.000000 0.000000 -0.000000 0.000000 0.000000 -0.000000 0.000000 0.000000 -0.000000 0.000000 -0.000000 -0.000000 0.000000 0.000000 -0.000000 0.000000 -0.000000 -0.000000 0.000000 0.000000 -0.000000 0.000000 0.000000 -0.000000 0.000000 1.662388 -3.586408 -5.415226 8.625615 -6.507515 -71.432345 -0.000004 -27.273637 0.000010 -12.557449 7.323398 -1.225754 -3.469770 3.607316 7.883180 9.703640 22.223508 2.891172 -0.000001 0.000001 -0.000001 0.162356 3.429614 -10.498180 0.209652 1.554732 -15.358570 0.000001 0.000001 -0.000002 0.362546 4.206378 -18.344228 0.474613 2.311787 -23.200235 0.000002 0.000002 -0.000001 0.689028 4.991693 -26.673256 0.865730 3.066791 -31.521453 -0.000000 0.000001 -0.000002 0.902507 5.377889 -30.995347 1.110593 3.433630 -35.838177 0.000000 0.000000 0.000001 -0.000000 0.000000 -0.000001 0.852756 9.220243 15.447169 -3.645494 2.192716 65.984231 0.000005 19.518041 -0.000009 2.258814 -7.623026 -8.499339 -1.986181 -5.435663 -3.761595 8.766482 -20.697683 -3.062068 0.000000 -0.000001 0.000003 2.057126 -6.108276 55.293571 5.419333 -4.594488 99.429407 -0.000001 0.000001 -0.000001 2.592851 -6.426561 62.973436 4.946627 -4.648186 93.567301 0.000001 0.000000 -0.000001 2.854982 -6.549324 66.538583 4.919150 -4.649822 93.228209 -0.000001 0.000001 -0.000000 1.542108 -5.696832 47.168200 2.898965 -4.313215 67.797359 -0.000001 0.000000 -0.000001 -0.000001 0.000000 0.000000 0.000001 0.000000 -0.000000 0.000001 0.000000 0.000000 0.000001 0.000000 -0.000000 0.000001 0.000000 -0.000000 0.000001 0.000000 -0.000000 0.000001 0.000000 -0.000000 0.000001 0.000000 -0.000000 0.000001 0.000000 -0.000000 0.000001 0.000000 -0.000000 0.000001 0.000000 -0.000000 0.000000 0.000000 -0.000000 0.000000 0.000000 -0.000000 0.000000 0.000000 -0.000000 
